<?xml version="1.0" standalone="no"?>
<!DOCTYPE svg PUBLIC "-//W3C//DTD SVG 20010904//EN"
 "http://www.w3.org/TR/2001/REC-SVG-20010904/DTD/svg10.dtd">
<svg version="1.0" xmlns="http://www.w3.org/2000/svg"
 width="809.000000pt" height="494.000000pt" viewBox="0 0 809.000000 494.000000"
 preserveAspectRatio="xMidYMid meet">

<g transform="translate(0.000000,494.000000) scale(0.100000,-0.100000)"
fill="#000000" stroke="none">
<path d="M2413 2872 c-28 -10 -68 -29 -88 -43 -41 -27 -110 -124 -120 -168 -5
-22 -13 -30 -38 -35 -49 -10 -103 -51 -132 -101 -51 -86 -31 -205 44 -268 58
-49 83 -52 411 -52 299 0 306 0 357 24 58 26 117 84 139 137 18 43 18 145 0
189 -28 65 -68 107 -133 137 -36 16 -64 36 -68 47 -9 30 -91 100 -143 123 -65
29 -163 33 -229 10z m351 -298 c9 -8 16 -21 16 -27 0 -6 -37 -49 -82 -94 -102
-103 -113 -104 -188 -28 l-54 55 -62 -61 c-47 -46 -67 -60 -85 -57 -16 2 -25
11 -27 27 -3 19 13 41 74 102 43 44 87 79 97 79 10 0 45 -25 78 -57 l59 -56
69 66 c38 37 74 67 79 67 6 0 18 -7 26 -16z"/>
<path d="M3963 2713 c2 -10 8 -26 12 -35 6 -16 0 -18 -59 -18 -64 0 -66 -1
-66 -25 l0 -25 160 0 160 0 0 25 c0 24 -2 25 -65 25 -65 0 -65 0 -79 35 -12
28 -21 35 -42 35 -20 0 -25 -4 -21 -17z"/>
<path d="M4225 2688 c-11 -68 -36 -149 -63 -206 -25 -50 -26 -53 -8 -70 17
-16 19 -16 33 6 17 24 33 29 33 10 0 -7 11 -39 24 -70 l23 -57 -33 -40 c-19
-21 -54 -52 -79 -68 -48 -30 -52 -39 -32 -67 12 -16 17 -14 74 28 34 25 70 57
79 71 l16 25 62 -67 c46 -49 67 -65 79 -60 34 13 29 35 -18 78 -25 24 -55 54
-65 68 -18 26 -17 28 11 111 16 47 29 99 29 115 1 54 11 75 36 75 19 0 24 5
24 25 0 25 -1 25 -90 25 l-90 0 6 43 c4 23 7 47 8 52 0 6 -11 11 -26 13 -24 3
-27 -1 -33 -40z m120 -160 c-10 -65 -37 -158 -45 -158 -19 0 -62 143 -54 177
5 20 12 23 56 23 l50 0 -7 -42z"/>
<path d="M5492 2700 c-149 -36 -216 -255 -130 -426 33 -67 95 -104 172 -104
93 0 106 6 106 47 0 30 -3 34 -17 28 -10 -4 -37 -12 -60 -18 -58 -14 -99 11
-135 82 -56 110 -25 276 60 325 29 16 41 17 75 9 23 -6 50 -14 60 -18 14 -6
17 -2 17 28 0 31 -3 36 -30 41 -65 13 -86 14 -118 6z"/>
<path d="M3250 2665 l0 -25 240 0 240 0 0 25 0 25 -240 0 -240 0 0 -25z"/>
<path d="M4530 2435 l0 -257 103 4 c56 3 114 10 128 17 31 16 76 82 90 136 18
67 7 203 -21 260 -39 78 -62 89 -191 93 l-109 4 0 -257z m209 169 c38 -31 51
-77 51 -174 -1 -131 -46 -190 -145 -190 l-35 0 0 195 0 195 49 0 c38 0 56 -6
80 -26z"/>
<path d="M4900 2435 l0 -255 30 0 30 0 0 162 c0 89 2 159 5 156 3 -3 22 -52
43 -109 l37 -104 36 -3 36 -3 39 110 c22 61 42 111 46 111 5 0 8 -72 8 -160
l0 -160 30 0 30 0 0 255 0 255 -34 0 c-23 0 -36 -6 -41 -17 -3 -10 -27 -76
-51 -148 -25 -71 -49 -134 -54 -138 -6 -7 -110 269 -110 294 0 5 -18 9 -40 9
l-40 0 0 -255z"/>
<path d="M4038 2573 c-16 -17 -14 -21 28 -66 50 -52 56 -54 75 -31 11 13 5 22
-37 65 -48 47 -51 49 -66 32z"/>
<path d="M3922 2549 c-9 -17 -31 -51 -49 -77 l-32 -46 21 -14 c19 -14 23 -13
49 19 15 19 38 56 50 82 20 41 21 50 9 58 -23 14 -30 11 -48 -22z"/>
<path d="M3190 2480 l0 -30 105 0 c58 0 105 -3 105 -6 0 -20 -90 -171 -126
-212 -49 -56 -51 -92 -5 -92 37 0 350 29 386 36 27 5 32 2 48 -31 11 -23 22
-34 30 -29 38 22 38 25 2 92 -88 159 -117 191 -143 159 -8 -10 -1 -29 28 -75
l39 -61 -32 -6 c-57 -9 -225 -25 -267 -25 l-40 0 34 48 c18 26 52 82 76 125
l42 77 160 0 159 0 -3 28 -3 27 -297 3 -298 2 0 -30z"/>
<path d="M4040 2409 c-8 -22 -17 -42 -21 -45 -4 -2 -23 9 -42 26 -41 36 -43
36 -58 8 -10 -19 -7 -25 30 -58 l43 -35 -42 -47 c-22 -26 -56 -56 -75 -68 -39
-24 -40 -27 -20 -54 13 -18 15 -18 49 3 19 12 56 45 81 74 l47 51 33 -39 c28
-34 35 -38 49 -26 24 20 20 37 -19 79 l-34 39 20 53 c20 52 20 55 3 67 -26 19
-29 17 -44 -28z"/>
<path d="M2234 2115 c-4 -8 -4 -22 0 -30 5 -13 42 -15 273 -13 l268 3 0 25 0
25 -268 3 c-231 2 -268 0 -273 -13z"/>
</g>
</svg>
